<?xml version="1.0" encoding="UTF-8"?>
<svg version="1.1" xmlns="http://www.w3.org/2000/svg" width="65" height="65">
<path d="M0,0 L65,0 L65,65 L0,65 Z " fill="#BEADC3" transform="translate(0,0)"/>
<path d="M0,0 L65,0 L65,65 L0,65 Z M29,2 L20,5 L12,11 L6,20 L4,26 L4,42 L10,54 L15,60 L22,64 L24,64 L30,47 L31,38 L34,37 L41,52 L46,62 L51,60 L59,51 L63,40 L63,26 L57,14 L50,7 L43,3 L39,2 Z " fill="#131415" transform="translate(0,0)"/>
<path d="M0,0 L2,0 L0,4 L-5,8 L-3,3 Z " fill="#C3A68B" transform="translate(15,8)"/>
</svg>
